M48
; DRILL file {KiCad 6.0.7-1.fc35} date Mon 15 Aug 2022 03:05:40 PM IST
; FORMAT={-:-/ absolute / metric / decimal}
; #@! TF.CreationDate,2022-08-15T15:05:40+05:30
; #@! TF.GenerationSoftware,Kicad,Pcbnew,6.0.7-1.fc35
; #@! TF.FileFunction,Plated,1,2,PTH
FMAT,2
METRIC
; #@! TA.AperFunction,Plated,PTH,ViaDrill
T1C0.400
; #@! TA.AperFunction,Plated,PTH,ComponentDrill
T2C0.750
; #@! TA.AperFunction,Plated,PTH,ComponentDrill
T3C0.762
; #@! TA.AperFunction,Plated,PTH,ComponentDrill
T4C0.800
; #@! TA.AperFunction,Plated,PTH,ComponentDrill
T5C1.000
; #@! TA.AperFunction,Plated,PTH,ComponentDrill
T6C1.100
; #@! TA.AperFunction,Plated,PTH,ComponentDrill
T7C1.300
%
G90
G05
T1
X54.61Y-39.624
X54.61Y-46.228
X67.056Y-32.004
X68.326Y-25.4
X68.326Y-26.67
X68.326Y-28.194
X77.47Y-39.37
X77.47Y-43.942
X78.232Y-33.02
X81.788Y-32.512
T2
X47.878Y-75.946
X47.988Y-126.746
X48.106Y-109.728
X48.124Y-143.87
X48.132Y-59.288
X48.142Y-177.8
X48.26Y-92.71
X48.496Y-160.782
X49.148Y-75.946
X49.258Y-126.746
X49.376Y-109.728
X49.394Y-143.87
X49.402Y-59.288
X49.412Y-177.8
X49.53Y-92.71
X49.766Y-160.782
X50.418Y-75.946
X50.528Y-126.746
X50.646Y-109.728
X50.664Y-143.87
X50.672Y-59.288
X50.682Y-177.8
X50.8Y-92.71
X51.036Y-160.782
X76.962Y-92.35
X77.216Y-109.114
X77.275Y-59.182
X77.275Y-75.84
X77.47Y-126.238
X77.529Y-159.66
X77.529Y-176.932
X77.783Y-143.002
X78.232Y-92.35
X78.486Y-109.114
X78.545Y-59.182
X78.545Y-75.84
X78.74Y-126.238
X78.799Y-159.66
X78.799Y-176.932
X79.053Y-143.002
X79.502Y-92.35
X79.756Y-109.114
X79.815Y-59.182
X79.815Y-75.84
X80.01Y-126.238
X80.069Y-159.66
X80.069Y-176.932
X80.323Y-143.002
X89.916Y-24.85
X91.186Y-24.85
X92.456Y-24.85
X98.806Y-24.744
X100.076Y-24.744
X101.346Y-24.744
X107.442Y-24.744
X108.712Y-24.744
X109.982Y-24.744
T3
X43.924Y-136.398
X44.186Y-85.852
X44.296Y-119.38
X44.296Y-153.416
X44.296Y-187.198
X44.322Y-69.342
X44.432Y-170.434
X44.45Y-102.362
X48.894Y-80.01
X48.894Y-82.55
X49.004Y-130.556
X49.004Y-133.096
X49.122Y-113.538
X49.122Y-116.078
X49.14Y-147.828
X49.14Y-150.368
X49.148Y-63.754
X49.148Y-66.294
X49.158Y-181.61
X49.158Y-184.15
X49.276Y-96.52
X49.276Y-99.06
X49.512Y-164.592
X49.512Y-167.132
X51.544Y-136.398
X51.806Y-85.852
X51.916Y-119.38
X51.916Y-153.416
X51.916Y-187.198
X51.942Y-69.342
X52.052Y-170.434
X52.07Y-102.362
X53.466Y-74.676
X53.466Y-82.296
X53.694Y-108.458
X53.694Y-116.078
X53.712Y-142.24
X53.712Y-149.86
X53.73Y-176.53
X53.73Y-184.15
X53.83Y-125.476
X53.83Y-133.096
X53.847Y-57.912
X53.847Y-65.532
X53.848Y-91.44
X53.848Y-99.06
X54.084Y-159.512
X54.084Y-167.132
X56.896Y-36.322
X56.896Y-43.942
X59.436Y-36.322
X59.436Y-43.942
X61.976Y-36.322
X61.976Y-43.942
X64.516Y-36.322
X64.516Y-43.942
X67.056Y-36.322
X67.056Y-43.942
X69.596Y-36.322
X69.596Y-43.942
X70.866Y-18.542
X72.136Y-36.322
X72.136Y-43.942
X73.66Y-91.694
X73.66Y-99.314
X74.168Y-108.458
X74.168Y-116.078
X74.227Y-58.42
X74.227Y-66.04
X74.227Y-75.184
X74.227Y-82.804
X74.422Y-125.73
X74.422Y-133.35
X74.481Y-159.004
X74.481Y-166.624
X74.481Y-176.276
X74.481Y-183.896
X74.676Y-36.322
X74.676Y-43.942
X74.735Y-142.24
X74.735Y-149.86
X75.438Y-102.616
X75.692Y-119.634
X75.751Y-68.834
X75.751Y-85.852
X75.946Y-18.542
X76.005Y-169.926
X76.2Y-136.398
X76.259Y-152.908
X76.259Y-186.944
X78.486Y-113.538
X78.486Y-116.078
X78.545Y-63.5
X78.545Y-66.04
X78.545Y-80.518
X78.545Y-83.058
X78.74Y-97.028
X78.74Y-99.568
X78.799Y-181.61
X78.799Y-184.15
X78.994Y-130.81
X78.994Y-133.35
X79.053Y-164.084
X79.053Y-166.624
X79.307Y-147.574
X79.307Y-150.114
X80.264Y-36.322
X80.264Y-43.942
X82.804Y-36.322
X82.804Y-43.942
X83.058Y-102.616
X83.312Y-119.634
X83.371Y-68.834
X83.371Y-85.852
X83.625Y-169.926
X83.82Y-136.398
X83.879Y-152.908
X83.879Y-186.944
X85.344Y-36.322
X85.344Y-43.942
X86.868Y-23.474
X86.868Y-31.094
X87.884Y-36.322
X87.884Y-43.942
X89.916Y-18.902
X90.424Y-36.322
X90.424Y-43.942
X92.456Y-18.902
X92.964Y-36.322
X92.964Y-43.942
X95.504Y-36.322
X95.504Y-43.942
X95.758Y-23.262
X95.758Y-30.882
X98.044Y-36.322
X98.044Y-43.942
X98.806Y-18.902
X101.346Y-18.902
X104.648Y-23.22
X104.648Y-30.84
X107.442Y-18.902
X109.982Y-18.902
T4
X107.539Y-38.959
X107.539Y-41.499
X107.539Y-44.039
X107.539Y-46.579
T5
X18.27Y-125.476
X18.27Y-130.556
X18.27Y-135.636
X18.288Y-58.42
X18.288Y-63.5
X18.288Y-68.58
X18.288Y-74.676
X18.288Y-79.756
X18.288Y-84.836
X18.288Y-91.694
X18.288Y-96.774
X18.288Y-101.854
X18.288Y-108.712
X18.288Y-113.792
X18.288Y-118.872
X18.288Y-142.748
X18.288Y-147.828
X18.288Y-152.908
X18.288Y-159.766
X18.288Y-164.846
X18.288Y-169.926
X18.288Y-176.784
X18.288Y-181.864
X18.288Y-186.944
X23.853Y-24.13
X23.853Y-26.67
X23.853Y-29.21
X23.853Y-31.75
X23.853Y-34.29
X23.853Y-36.83
X23.853Y-39.37
X23.853Y-41.91
X37.918Y-57.45
X37.918Y-69.45
X37.936Y-74.214
X37.936Y-86.214
X38.046Y-90.978
X38.046Y-102.978
X38.046Y-107.742
X38.046Y-119.742
X38.046Y-124.76
X38.046Y-136.76
X38.046Y-141.778
X38.046Y-153.778
X38.046Y-158.796
X38.046Y-170.796
X38.046Y-175.814
X38.046Y-187.814
X46.713Y-24.13
X46.713Y-26.67
X46.713Y-29.21
X46.713Y-31.75
X46.713Y-34.29
X46.713Y-36.83
X46.713Y-39.37
X46.713Y-41.91
X89.462Y-91.078
X89.462Y-103.078
X89.462Y-107.842
X89.462Y-119.842
X89.462Y-124.606
X89.462Y-136.606
X89.521Y-57.804
X89.521Y-69.804
X89.521Y-74.314
X89.521Y-86.314
X89.521Y-141.37
X89.521Y-153.37
X89.521Y-158.388
X89.521Y-170.388
X89.521Y-175.406
X89.521Y-187.406
X109.22Y-91.948
X109.22Y-97.028
X109.22Y-102.108
X109.22Y-108.966
X109.22Y-114.046
X109.22Y-119.126
X109.22Y-125.73
X109.22Y-130.81
X109.22Y-135.89
X109.279Y-58.674
X109.279Y-63.754
X109.279Y-68.834
X109.279Y-75.184
X109.279Y-80.264
X109.279Y-85.344
X109.279Y-142.494
X109.279Y-147.574
X109.279Y-152.654
X109.279Y-159.512
X109.279Y-164.592
X109.279Y-169.672
X109.279Y-176.53
X109.279Y-181.61
X109.279Y-186.69
T6
X44.178Y-125.233
X44.178Y-132.853
X44.314Y-142.505
X44.314Y-150.125
X44.322Y-57.923
X44.322Y-65.543
X44.322Y-74.687
X44.322Y-82.307
X44.332Y-176.287
X44.332Y-183.907
X44.45Y-91.197
X44.45Y-98.817
X44.55Y-108.469
X44.55Y-116.089
X44.686Y-159.269
X44.686Y-166.889
X83.241Y-108.469
X83.241Y-116.089
X83.3Y-75.195
X83.3Y-82.815
X83.312Y-91.705
X83.312Y-99.325
X83.371Y-58.431
X83.371Y-66.051
X83.566Y-125.487
X83.566Y-133.107
X83.625Y-142.251
X83.625Y-149.871
X83.625Y-159.015
X83.625Y-166.635
X83.625Y-176.287
X83.625Y-183.907
T7
X25.668Y-69.5
X25.686Y-86.264
X25.718Y-57.45
X25.736Y-74.214
X25.796Y-103.028
X25.796Y-119.792
X25.796Y-136.81
X25.796Y-153.828
X25.796Y-170.846
X25.796Y-187.864
X25.846Y-90.978
X25.846Y-107.742
X25.846Y-124.76
X25.846Y-141.778
X25.846Y-158.796
X25.846Y-175.814
X39.868Y-63.5
X39.886Y-80.264
X39.996Y-97.028
X39.996Y-113.792
X39.996Y-130.81
X39.996Y-147.828
X39.996Y-164.846
X39.996Y-181.864
X87.512Y-97.028
X87.512Y-113.792
X87.512Y-130.556
X87.571Y-63.754
X87.571Y-80.264
X87.571Y-147.32
X87.571Y-164.338
X87.571Y-181.356
X101.662Y-103.078
X101.662Y-119.842
X101.662Y-136.606
X101.712Y-91.028
X101.712Y-107.792
X101.712Y-124.556
X101.721Y-69.804
X101.721Y-86.314
X101.721Y-153.37
X101.721Y-170.388
X101.721Y-187.406
X101.771Y-57.754
X101.771Y-74.264
X101.771Y-141.32
X101.771Y-158.338
X101.771Y-175.356
T0
M30
